<?xml version="1.0" encoding="UTF-8"?><svg id="_レイヤー_2" xmlns="http://www.w3.org/2000/svg" viewBox="0 0 135.19 54.88"><defs><style>.cls-1{fill:#fff;}</style></defs><g id="_オブジェクト"><path class="cls-1" d="m133.42,27.22l-.31.48c-.76,1.17-2.23,3.08-3.54,2.67-.29-.09-.56-.44-.56-1.03,0-.12.01-.25.04-.39.01-.05,2.26-8.45,2.26-8.45.14-.56.25-1.15.32-1.63.06-.45.09-.89.09-1.3,0-1.43-.38-2.59-1.13-3.46-.87-.99-2.2-1.52-3.84-1.52-1.51,0-2.96.62-3.95,1.33-.04-.22-.14-.8-.14-.8h-7.57s-2.88,10.74-2.89,10.78c-1.88,3.87-6.64,6.27-9.99,6.27-.67,0-1.23-.16-1.68-.47-.46-.43-.71-1.21-.75-2.25.47-.22,10.51-4.93,10.51-4.93l.06-.18c.2-.69.21-.73.22-.98l.06-.55c.1-.72.15-1.41.15-2.06,0-2-.48-3.56-1.45-4.66-1.01-1.16-2.53-1.75-4.51-1.75-6.8,0-11.79,6.73-12.68,13.24-.09.67-.14,1.32-.14,1.94s.06,1.25.16,1.83c-.8.7-2.05,1.01-2.98,1-.17,0-.22-.07-.24-.1-.34-.45.12-2.11.39-3.1l.03-.02,6.99-26.01h-8.04s-2.99,11.16-3.36,12.53c-.58-.61-1.39-1.07-2.77-1.07-9.38,0-11.33,12.32-11.52,13.72-.09.65-.13,1.27-.13,1.87,0,.47.04.92.09,1.36-.72.56-2.18.9-2.8.81-.09-.01-.15-.05-.2-.13-.29-.45-.16-1.74.32-3.29,0-.02,3.71-13.82,3.71-13.82h-7.99s-2.84,10.71-2.87,10.82c-1.84,3.84-6.65,6.23-10.05,6.24-.67,0-1.23-.16-1.68-.47-.46-.43-.71-1.21-.75-2.25.48-.22,10.52-4.93,10.52-4.93l.06-.18c.2-.69.21-.73.22-.98l.06-.55c.1-.72.15-1.41.15-2.06,0-2-.48-3.56-1.45-4.66-1.01-1.16-2.53-1.75-4.51-1.75-6.81,0-11.79,6.73-12.68,13.24-.09.68-.14,1.33-.14,1.95,0,1.2.17,2.29.52,3.24l.23.55c1.18,2.57,3.51,3.79,7.33,3.81,3.96.01,7.77-1.73,10.64-4.8,0,.06,0,.11,0,.17,0,.88.18,1.93.82,2.8.88,1.21,2.42,1.82,4.55,1.82,3.03,0,4.95-1.17,5.63-1.67.49-.36.9-.72,1.27-1.07,1,1.7,2.67,2.64,4.89,2.7,3.38.09,4.8-.73,6.55-1.99.82,1.26,2.12,1.97,3.79,2.04,2.22.09,3.74-.26,4.93-1.15.75-.55,1.24-1.17,1.61-1.73,1.3,1.95,3.47,2.88,6.79,2.89,3.78.01,7.44-1.57,10.27-4.39-.39,1.43-1,3.71-1,3.71h8.04l3.63-13.59c.61-2.17,1.28-3.24,2.04-3.24.25,0,.35.08.4.14.1.11.24.42.13,1.23-.04.31-.12.65-.23,1.09,0,0-1.67,6.25-1.67,6.25-.94,3.3-.86,5.62.24,7.08.85,1.13,2.31,1.7,4.34,1.7,1.8,0,3.9-.8,4.96-1.56,1.51-1.08,2.46-2.13,3.76-3.81l.19-.25-1.77-2.28Zm-32.45-6.06c.76-2.82,2.14-4.87,2.69-4.86.33,0,.37.55.37,1.23,0,.37-.03.84-.11,1.4-.09.66-.24,1.56-.38,2.22-.26.12-2.01.94-2.94,1.38.17-.64.37-1.37.37-1.37h0Zm-51.48,0c.76-2.82,2.14-4.87,2.69-4.86.34,0,.37.55.37,1.23,0,.37-.03.84-.11,1.4-.09.66-.24,1.56-.38,2.22-.26.12-2.01.94-2.94,1.38.17-.64.37-1.37.37-1.37Zm33.65-1.55c-.48,3.64-2.6,10.61-4.51,10.61-.05,0-.1-.01-.16-.08-.16-.19-.3-.68-.3-1.54,0-.43.04-.96.12-1.59.41-3.13,2.35-10.46,4.24-10.46.16,0,.27.05.36.16.16.18.51.83.24,2.9Z"/><path class="cls-1" d="m41.36,1h-7.32s-9.88,16.59-11.02,18.52c-.19-2.19-1.65-18.52-1.65-18.52h-8.76L0,34.39h7.73s4.88-12.92,5.95-15.76c.19,2.98,1.01,15.76,1.01,15.76h5.58s7.68-12.57,9.32-15.26c-.41,3.01-2.07,15.26-2.07,15.26h9.82L42.24,1h-.88Z"/><path class="cls-1" d="m65.08,6.57h0c-.19,1.4.1,2.62.82,3.44.57.66,1.37,1,2.29,1,2.66,0,5.41-2.97,5.87-6.37.2-1.47-.12-2.79-.87-3.65-.57-.65-1.34-1-2.23-1-2.71,0-5.4,3.01-5.88,6.57Z"/><path class="cls-1" d="m130.97,42.24L.65,43.34l10.22,11.54.23-.04c27.14-4.98,53.67-6.91,119.61-10.18l.32-.02.44-2.4h-.49Z"/></g></svg>